<?xml version="1.0" encoding="UTF-8" standalone="no"?>
<svg
   width="1500"
   height="1500"
   version="1.1"
   id="svg28"
   xmlns:inkscape="http://www.inkscape.org/namespaces/inkscape"
   xmlns:sodipodi="http://sodipodi.sourceforge.net/DTD/sodipodi-0.dtd"
   xmlns="http://www.w3.org/2000/svg"
   xmlns:svg="http://www.w3.org/2000/svg">
  <sodipodi:namedview
     id="namedview28"
     pagecolor="#ffffff"
     bordercolor="#000000"
     borderopacity="0.25"
     inkscape:showpageshadow="2"
     inkscape:pageopacity="0.0"
     inkscape:pagecheckerboard="0"
     inkscape:deskcolor="#d1d1d1" />
  <defs
     id="defs1" />
  <g
     transform="translate(388.92857142857144, 321.42857142857144) scale(2.142857142857143)"
     id="g28">
    <g
       transform="translate(0, 0) scale(1 1) rotate(0)"
       fill="#4a3ab2"
       id="g27">
      <svg
         width="337"
         height="400"
         viewBox="0 0 337 400"
         version="1.1"
         id="svg26">
        <defs
           id="defs2" />
        <g
           id="g26">
          <g
             id="g25">
            <g
               id="g2">
              <path
                 style="stroke: none; stroke-width: 1; stroke-dasharray: none; stroke-linecap: butt; stroke-dashoffset: 0; stroke-linejoin: miter; stroke-miterlimit: 4;  fill-rule: nonzero; opacity: 1"
                 d="M 287.0092501615827,0.8172501558514824 C 281.665998985961,2.2581268773674594 277.703588001792,4.659588079894135 273.3209213071809,9.162327834631483 C 265.6362454590958,16.967076742843048 260.65321346385304,28.31398092478129 258.9121540920213,41.64209059880402 C 258.1316792012001,47.94592625543639 258.0116061410738,64.03571631236476 258.1316792012001,174.62300468871547 L 258.31178879138963,300.39953517104715 L 261.6137979448637,300.81979088148927 C 263.4148938467587,301.05993700174196 267.37730483092764,301.30008312199465 270.3190948040227,301.42015618212093 L 275.7223825097076,301.6002657723105 L 276.0225651600234,173.12209143713636 C 276.32274781033925,53.52932355131078 276.44282087046565,44.403770981709656 277.4034053514762,40.80157917791969 C 279.9849761441924,31.31580742793959 286.04866568057207,23.691168109917598 292.59264745745713,21.76999914789623 C 296.61509497168913,20.569268546632927 294.8740355998574,20.269085896317122 316.6072594827233,26.332775432696863 L 328.07423672478785,29.514711526044593 L 330.8359171076935,28.193907864654946 C 336.83957011401003,25.31215442162305 338.40051989565234,17.62747857353783 334.1979627912308,12.224190867852926 C 332.33683035927265,9.882766195389479 330.41566139725137,9.102291304568354 317.2676613134181,5.50009950077839 C 295.83462008086804,-0.3834804454118057 293.13297622802554,-0.8037361558539828 287.0092501615827,0.8172501558514824"
                 class="c1"
                 id="i1" />
            </g>
            <g
               id="g3">
              <path
                 style="stroke: none; stroke-width: 1; stroke-dasharray: none; stroke-linecap: butt; stroke-dashoffset: 0; stroke-linejoin: miter; stroke-miterlimit: 4;  fill-rule: nonzero; opacity: 1"
                 d="M 208.0706342455454,11.906181986302997 C 203.50785796074481,13.22698564769263 200.50603145758654,15.088118079650783 196.54362047341758,19.230638654009184 C 190.05967522659577,26.07480308121005 185.61697200192154,34.66002688024268 183.27554732945808,44.92627352104397 C 182.1348532582579,49.96934204634992 182.01478019813155,52.791058959318676 181.83467060794212,85.99126008424919 C 181.65456101775263,105.56316888484109 181.77463407787897,121.83306853195894 182.0748167281948,122.13325118227475 C 182.37499937851058,122.43343383259058 184.89653364116353,122.13325118227475 187.65821402406917,121.41281282151677 C 191.8607711284907,120.45222834050615 193.24161131994353,120.33215528037981 195.70310905253334,120.87248405094833 C 197.3240953642388,121.23270323132728 198.7649720857548,121.41281282151677 198.88504514588104,121.29273976139051 C 199.00511820600738,121.11263017120093 199.06515473607058,107.36426478673611 199.06515473607058,90.73414595923926 C 199.06515473607058,59.39507726626685 199.3053008563232,54.592154861213615 201.52665246866033,48.04817308432861 C 203.32774837055533,42.70492190870685 207.59034200504007,36.58119584226405 210.77227809838783,34.66002688024268 C 215.93541968382007,31.65820037708444 216.1755658040727,31.65820037708444 229.6237485382218,35.380465241000664 C 242.77174862205507,38.98265704479063 244.45277146382367,39.10273010491697 247.69474408723457,36.821341962516655 C 250.21627834988757,35.020246060621716 251.2969358910245,32.618784858095054 251.2969358910245,28.89651999417883 C 251.2969358910245,25.294328190388924 249.6159130492559,21.752172916662104 247.03434225653976,19.89104048470402 C 244.8129906442027,18.21001764293537 220.73834208887328,11.666035866050379 215.57520050344104,11.305816685671346 C 212.7534835904723,11.125707095481872 210.2919858578825,11.305816685671346 208.0706342455454,11.906181986302997"
                 class="c1"
                 id="i2" />
            </g>
            <g
               id="g4">
              <path
                 style="stroke: none; stroke-width: 1; stroke-dasharray: none; stroke-linecap: butt; stroke-dashoffset: 0; stroke-linejoin: miter; stroke-miterlimit: 4;  fill-rule: nonzero; opacity: 1"
                 d="M 133.00460542831334,104.71231270800736 C 133.00460542831334,122.18294295638854 133.24475154856603,133.95010284876895 133.54493419888186,134.19024896902164 C 133.90515337926084,134.37035855921113 137.20716253273494,135.09079691996914 140.92942739665116,135.7511987506639 C 144.65169226056744,136.41160058135875 148.31392059442052,137.07200241205356 149.03435895517853,137.25211200224305 C 150.2350895564418,137.55229465255894 150.35516261656815,137.3721850623694 150.53527220675764,134.7305777395901 C 150.71538179694713,132.0889704168108 150.83545485707347,131.84882429655818 152.51647769884212,131.42856858611606 C 153.53709870991597,131.18842246586337 158.64020376528495,129.98769186460004 163.98345494090668,128.78696126333676 L 173.6493362810763,126.50557312093643 L 174.0095554614554,105.43275106876534 C 174.18966505164477,93.84570076657441 174.12962852158168,84.11978289634165 173.889482401329,83.87963677608896 C 173.6493362810763,83.63949065583633 168.065938985202,82.37872352450982 161.4619206782538,81.0579198631202 C 154.91793890136873,79.7971527317937 146.33271510233604,78.05609335996196 142.49037717829347,77.21558193907761 C 138.5880027241877,76.37507051819328 134.86573786027148,75.6546321574353 134.20533602957667,75.6546321574353 C 133.00460542831334,75.6546321574353 133.00460542831334,75.9548148077511 133.00460542831334,104.71231270800736"
                 class="c1"
                 id="i3" />
            </g>
            <g
               id="g5">
              <path
                 style="stroke: none; stroke-width: 1; stroke-dasharray: none; stroke-linecap: butt; stroke-dashoffset: 0; stroke-linejoin: miter; stroke-miterlimit: 4;  fill-rule: nonzero; opacity: 1"
                 d="M 107.55978471110396,80.47958335082713 C 99.33478009245027,82.76097149322744 91.46999465417562,84.98232310556453 90.14919099278598,85.40257881600671 L 87.74772979025934,86.18305370682783 L 87.74772979025934,104.79437802640912 L 87.74772979025934,123.40570234599043 L 97.05339195004998,125.32687130801172 C 102.15649700541908,126.40752884914865 106.71927329021966,127.12796720990666 107.13952900066178,127.00789414978031 C 107.6198212411671,126.82778455959082 107.85996736141979,125.44694436813806 107.85996736141979,122.86537357542191 C 107.85996736141979,120.70405849314794 108.16015001173562,118.78288953112666 108.46033266205146,118.60277994093717 C 109.30084408293575,118.06245117036865 117.28570258133678,115.90113608809476 118.36636012247376,115.90113608809476 C 119.08679848323172,115.90113608809476 119.2669080734212,116.86172056910537 119.2669080734212,121.24438726371643 C 119.2669080734212,124.24621376687476 119.44701766361075,126.76774802952768 119.74720031392653,126.88782108965403 C 119.98734643417922,127.00789414978031 121.0680039753162,126.76774802952768 122.14866151645319,126.34749231908553 L 124.06983047847447,125.50698089820118 L 123.94975741834813,101.07211316249284 C 123.82968435822184,85.46261534606985 123.52950170790595,76.63724542678453 123.16928252752697,76.51717236665819 C 122.86909987721114,76.45713583659499 115.84482585982082,78.19819520842681 107.55978471110396,80.47958335082713"
                 class="c1"
                 id="i4" />
            </g>
            <g
               id="g6">
              <path
                 style="stroke: none; stroke-width: 1; stroke-dasharray: none; stroke-linecap: butt; stroke-dashoffset: 0; stroke-linejoin: miter; stroke-miterlimit: 4;  fill-rule: nonzero; opacity: 1"
                 d="M 178.67397820984738,136.58963198396913 C 170.9292658316991,138.5108009459904 163.4246995738034,140.2518603178222 161.98382285228737,140.4920064380749 C 160.60298266083456,140.67211602826438 159.28217899944494,141.1524082687697 159.0420328791923,141.51262744914874 C 158.86192328900276,141.87284662952771 158.62177716875013,152.3792393905817 158.56174063868693,164.9268741737833 C 158.50170410862378,181.73710259146958 158.68181369881327,187.74075559778612 159.22214246938174,187.9809017180388 C 159.94258083013975,188.22104783829144 175.6721517066891,184.8590021547542 177.95353984908937,183.9584542038067 C 179.0942339202895,183.47816196330137 179.27434351047899,182.93783319273285 179.3343800405422,179.6358240392588 C 179.45445310066853,173.27195185256323 179.51448963073167,173.15187879243695 184.97781386647975,171.83107513104733 C 187.55938465919584,171.23070983041566 190.0809189218488,170.87049065003663 190.50117463229097,170.99056371016297 C 191.0415034028595,171.23070983041566 191.28164952311212,172.7916596120579 191.28164952311212,176.453887945911 C 191.28164952311212,182.3374678921012 191.22161299304898,182.2774313620381 197.52544864968135,180.6564450503326 C 201.30775004366077,179.69586056932195 199.80683679208167,179.51575097913246 222.08038944551603,182.99786972279605 C 228.26415204202206,183.89841767374355 231.08586895499084,184.13856379399624 231.26597854518033,183.71830808355406 C 231.38605160530662,183.35808890317503 231.44608813536976,173.33198838262643 231.38605160530662,161.4447554301197 L 231.2059420151172,139.83160460738003 L 223.10101045658988,138.21061829567458 C 215.65648072875732,136.70970504409547 198.9062888411341,133.8279516010635 194.58365867658623,133.28762283049508 C 193.62307419557553,133.16754977036874 186.4186905879957,134.6084264918847 178.67397820984738,136.58963198396913"
                 class="c1"
                 id="i5" />
            </g>
            <g
               id="g7">
              <path
                 style="stroke: none; stroke-width: 1; stroke-dasharray: none; stroke-linecap: butt; stroke-dashoffset: 0; stroke-linejoin: miter; stroke-miterlimit: 4;  fill-rule: nonzero; opacity: 1"
                 d="M 83.128657713038,160.78947979545325 C 83.128657713038,177.65974474320274 83.36880383329066,188.2261740343199 83.72902301366966,188.46632015457254 C 84.02920566398546,188.64642974476203 91.23358927156531,189.84716034602536 99.75877654053483,191.16796400741498 C 108.28396380950434,192.42873113874145 117.40951637910544,193.86960786025742 120.05112370188479,194.34990010076274 C 122.69273102466403,194.83019234126806 125.03415569712749,195.0103019314576 125.27430181738012,194.83019234126806 C 125.51444793763281,194.59004622101543 125.75459405788544,182.40263061819286 125.75459405788544,167.75371728278049 C 125.81463058794864,142.65844771637734 125.75459405788544,141.03746140467177 124.73397304681166,140.6172056942297 C 123.47320591548518,140.0768769236612 86.01041115606995,133.53289514677613 84.26935178423813,133.53289514677613 C 83.18869424310114,133.53289514677613 83.128657713038,134.37340656766048 83.128657713038,160.78947979545325"
                 class="c1"
                 id="i6" />
            </g>
            <g
               id="g8">
              <path
                 style="stroke: none; stroke-width: 1; stroke-dasharray: none; stroke-linecap: butt; stroke-dashoffset: 0; stroke-linejoin: miter; stroke-miterlimit: 4;  fill-rule: nonzero; opacity: 1"
                 d="M 67.90828897531674,135.7239514024045 C 66.28730266361126,136.20424364290983 58.96284599590507,138.1254126049311 51.698425858262055,140.0465815669524 L 38.49038924436567,143.4686637805529 L 38.49038924436567,162.38017075045002 L 38.49038924436567,181.29167772034714 L 47.796051404156316,182.9126640320526 C 52.89915645952536,183.81321198300003 57.40189621426279,184.4736138136949 57.82215192470491,184.29350422350535 C 58.24240763514709,184.17343116337906 58.422517225336605,182.9126640320526 58.24240763514709,180.57123935958913 C 57.82215192470491,175.46813430422003 58.602626815526065,174.3874767630831 63.705731870895164,173.06667310169348 C 66.0471565433586,172.46630780106182 68.20847162563254,172.10608862068278 68.62872733607472,172.22616168080913 C 69.10901957658001,172.40627127099862 69.40920222689587,174.3274402330199 69.52927528702219,177.50937632636766 L 69.7093848772117,182.4924083216104 L 71.51048077910664,182.4924083216104 L 73.31157668100161,182.4924083216104 L 73.31157668100161,158.77797894666003 C 73.31157668100161,131.7615404182356 73.8519054515701,134.04292856063591 67.90828897531674,135.7239514024045"
                 class="c1"
                 id="i7" />
            </g>
            <g
               id="g9">
              <path
                 style="stroke: none; stroke-width: 1; stroke-dasharray: none; stroke-linecap: butt; stroke-dashoffset: 0; stroke-linejoin: miter; stroke-miterlimit: 4;  fill-rule: nonzero; opacity: 1"
                 d="M 133.55463240758436,141.66184131732876 C 133.31448628733168,142.26220661796037 133.074340167079,193.35329370171422 133.31448628733168,193.7135128820932 C 133.55463240758436,194.13376859253538 145.80208454047008,192.09252657038775 149.70445899457584,191.01186902925076 C 150.2447877651443,190.83175943906127 150.4248973553338,185.72865438369223 150.4248973553338,167.95784148499524 L 150.4248973553338,145.14396006099236 L 149.10409369394418,144.5435947603607 C 147.1829247319229,143.7631198695396 133.7347419977738,141.3016221369498 133.55463240758436,141.66184131732876"
                 class="c1"
                 id="i8" />
            </g>
            <g
               id="g10">
              <path
                 style="stroke: none; stroke-width: 1; stroke-dasharray: none; stroke-linecap: butt; stroke-dashoffset: 0; stroke-linejoin: miter; stroke-miterlimit: 4;  fill-rule: nonzero; opacity: 1"
                 d="M 208.25286820526028,217.95076807000135 L 208.43297779544977,244.54695088798366 L 225.54338886345195,246.40808331994174 C 234.96912408336888,247.48874086107878 243.73445747259106,248.38928881202622 245.05526113398068,248.50936187215257 L 247.45672233650728,248.7495079924052 L 247.87697804694946,223.23398271555988 C 248.11712416720215,209.18543468077917 248.11712416720215,197.53834784852512 247.87697804694946,197.29820172827243 C 247.51675886657048,196.9980190779566 210.6543294077869,191.41462178208224 208.7331604457656,191.41462178208224 C 208.31290473532343,191.41462178208224 208.19283167519708,199.93980905105172 208.25286820526028,217.95076807000135"
                 class="c1"
                 id="i9" />
            </g>
            <g
               id="g11">
              <path
                 style="stroke: none; stroke-width: 1; stroke-dasharray: none; stroke-linecap: butt; stroke-dashoffset: 0; stroke-linejoin: miter; stroke-miterlimit: 4;  fill-rule: nonzero; opacity: 1"
                 d="M 21.44246234957535,196.18457027754698 L 5.232599232520698,200.1469812617159 L 5.052489642331182,223.2610453360346 C 4.992453112268038,235.98878970942576 5.052489642331182,246.6752920606691 5.172562702457526,247.09554777111128 C 5.352672292647043,247.5758400116166 6.013074123341852,247.6358765416798 7.153768194541982,247.33569389136392 C 8.774754506247433,246.9154381809218 8.834791036310634,246.73532859073225 9.134973686626466,242.05247924580533 C 9.315083276815955,239.35083539296295 9.67530245719496,236.94937419043634 9.915448577447592,236.70922807018366 C 10.515813878079257,236.108862769552 19.881512567933072,234.1876938075307 20.24173174831205,234.60794951797288 C 20.421841338501537,234.72802257809917 20.54191439862788,236.94937419043634 20.54191439862788,239.4709084530893 C 20.54191439862788,241.99244271574224 20.661987458754226,244.21379432807942 20.842097048943714,244.3939039182688 C 21.02220663913323,244.57401350845834 22.042827650207045,244.51397697839525 23.123485191344002,244.3338673882057 L 25.044654153365315,243.91361167776358 L 25.344836803681147,238.630397032205 L 25.64501945399695,233.28714585658327 L 30.44794185905019,232.14645178538308 C 33.02951265176631,231.54608648475147 35.55104691441926,231.18586730437244 35.97130262486141,231.30594036449884 C 36.5116313954299,231.54608648475147 36.75177751568256,233.70740156702544 36.87185057580888,238.69043356226814 L 37.051960165998366,245.77474410972167 L 45.337001314715195,246.9154381809218 C 49.83974106945263,247.51580348155346 53.98226164381103,247.8159861318693 54.46255388431638,247.6358765416798 C 54.9428461248217,247.45576695149032 55.36310183526385,246.61525553060602 55.36310183526385,245.8347806397848 C 55.36310183526385,243.85357514770038 56.203613256148174,243.49335596732135 64.66876399505449,241.87236965561596 C 68.6311749792234,241.09189476479474 72.1733302529502,240.31141987397365 72.473512903266,240.01123722365782 C 72.833732083645,239.71105457334193 73.07387820389766,231.9063056651305 73.07387820389766,218.6982690512341 L 73.07387820389766,197.8055565892525 L 70.91256312162372,197.3853008788103 C 68.09084620865494,196.78493557817865 43.11564970237808,192.82252459400974 40.053786669156636,192.5223419436939 C 38.432800357451185,192.34223235350441 32.54922041126099,193.48292642470454 21.44246234957535,196.18457027754698"
                 class="c1"
                 id="i10" />
            </g>
            <g
               id="g12">
              <path
                 style="stroke: none; stroke-width: 1; stroke-dasharray: none; stroke-linecap: butt; stroke-dashoffset: 0; stroke-linejoin: miter; stroke-miterlimit: 4;  fill-rule: nonzero; opacity: 1"
                 d="M 192.7827475024762,192.7538982219529 C 191.46194384108654,193.05408087226874 183.23693922243288,194.85517677416368 174.47160583321076,196.71630920612182 L 158.62196189653505,200.1383914197222 L 158.62196189653505,218.32946002886138 C 158.62196189653505,228.8358527899153 158.8621080167877,236.70063822818997 159.22232719716666,237.0008208785058 C 159.76265596773518,237.54114964907433 177.47343233636897,240.06268391172728 180.6553684297168,240.06268391172728 C 182.2163182113591,240.06268391172728 182.27635474142224,239.94261085160093 182.27635474142224,236.46049210793728 C 182.27635474142224,233.27855601458958 182.45646433161173,232.79826377408426 183.657194932875,232.31797153357888 C 185.99861960533846,231.3573870525683 192.60263791228667,230.33676604149446 193.14296668285513,230.87709481206292 C 193.38311280310782,231.1172409323156 193.68329545342365,233.63877519496862 193.80336851355,236.40045557787414 C 193.9834781037395,241.44352410318004 193.9834781037395,241.50356063324324 195.78457400563443,241.98385287374856 C 196.74515848664512,242.22399899400125 197.7057429676557,242.22399899400125 197.8858525578452,241.98385287374856 C 198.06596214803474,241.74370675349587 198.1259986780979,230.3968025715576 198.00592561797154,216.76851024721907 L 197.7657794977189,192.0334598611949 L 196.50501236639244,192.0934963912581 C 195.78457400563443,192.15353292132124 194.10355116386583,192.39367904157393 192.7827475024762,192.7538982219529"
                 class="c1"
                 id="i11" />
            </g>
            <g
               id="g13">
              <path
                 style="stroke: none; stroke-width: 1; stroke-dasharray: none; stroke-linecap: butt; stroke-dashoffset: 0; stroke-linejoin: miter; stroke-miterlimit: 4;  fill-rule: nonzero; opacity: 1"
                 d="M 83.5515919763599,197.99444074922036 C 83.01126320579141,198.89498870016786 83.13133626591775,238.93935425229915 83.67166503648625,239.2995734326782 C 84.15195727699157,239.59975608299402 91.23626782444506,238.158879361478 106.00525421998381,234.79683367794075 C 108.88700766301574,234.13643184724594 112.24905334655298,233.59610307667748 113.50982047787946,233.59610307667748 C 114.83062413926908,233.59610307667748 123.11566528798593,234.55668755768806 132.00107173733446,235.69738162888825 C 140.82644165661972,236.83807570008838 148.33100791451542,237.6185505909096 148.63119056483126,237.43844100072005 C 149.29159239552607,237.01818529027793 149.3516289255892,201.3564864327576 148.6912270948944,200.93623072231543 C 148.45108097464177,200.75612113212594 147.01020425312575,200.93623072231543 145.50929100154664,201.29644990269446 C 144.06841428003068,201.5966325530103 140.28611288605126,202.37710744383145 137.16421332276664,202.9174362143999 L 131.46074296676593,203.9380572254737 L 131.10052378638696,209.6415275814744 C 130.86037766613427,212.70339061469593 130.5001584857553,218.58697056088613 130.26001236550266,222.60941807511819 C 129.95982971518683,226.69190211941344 129.53957400474465,229.99391127288754 129.23939135442882,229.99391127288754 C 128.9992452341762,229.99391127288754 128.7590991139235,229.51361903238222 128.7590991139235,228.91325373175056 C 128.7590991139235,228.37292496118204 128.45891646360766,222.6694546051814 128.03866075316554,216.24554588842267 C 127.37825892247068,205.43897047705286 127.25818586234433,204.5984590561685 126.1174917911442,204.1782033457264 C 125.3970534303862,203.87802069541056 118.79303512343799,202.79736315427357 111.34850539560554,201.77674214319978 C 98.86090714246708,200.035682771368 89.31509886242378,198.59480604985202 85.41272440831804,197.81433115903087 C 84.57221298743372,197.63422156884133 83.73170156654942,197.69425809890453 83.5515919763599,197.99444074922036"
                 class="c1"
                 id="i12" />
            </g>
            <g
               id="g14">
              <path
                 style="stroke: none; stroke-width: 1; stroke-dasharray: none; stroke-linecap: butt; stroke-dashoffset: 0; stroke-linejoin: miter; stroke-miterlimit: 4;  fill-rule: nonzero; opacity: 1"
                 d="M 117.41930695170035,244.1159809660225 C 116.75890512100554,244.83641932678046 116.87897818113188,295.26710457983944 117.59941654188984,295.6873602902816 C 118.56000102290054,296.2877255909133 146.7771701525883,298.62915026337674 147.85782769372523,298.20889455293457 C 148.69833911460958,297.8486753725556 148.81841217473593,295.447214170029 148.81841217473593,272.93351539634193 C 148.81841217473593,257.023834929603 148.57826605448324,247.89828236000193 148.21804687410426,247.65813623974924 C 147.91786422378843,247.47802664955975 141.8541746874087,246.6375152286754 134.8899372000815,245.7970038077911 C 127.86566318269118,245.01652891696995 121.14157181561663,244.23605402614885 120.0008777444165,244.05594443595925 C 118.80014714315317,243.81579831570667 117.65945307195304,243.87583484576987 117.41930695170035,244.1159809660225"
                 class="c1"
                 id="i13" />
            </g>
            <g
               id="g15">
              <path
                 style="stroke: none; stroke-width: 1; stroke-dasharray: none; stroke-linecap: butt; stroke-dashoffset: 0; stroke-linejoin: miter; stroke-miterlimit: 4;  fill-rule: nonzero; opacity: 1"
                 d="M 102.35166191007053,246.5113461516504 C 100.37045641798608,246.93160186209258 93.22610934046938,248.25240552348225 86.44198144333168,249.51317265480873 C 79.65785354619399,250.713903256072 73.53412747975113,251.97467038739848 72.81368911899312,252.27485303771425 L 71.43284892754033,252.81518180828277 L 71.43284892754033,276.1693920028542 C 71.43284892754033,289.2573555566242 71.67299504779297,299.703711787615 71.9731776981088,299.8838213778045 C 72.63357952880361,300.3040770882467 87.52263898446867,298.56301771641483 89.32373488636361,297.84257935565694 C 90.52446548762694,297.3022505850884 90.64453854775326,296.8819948746462 90.64453854775326,293.0996934806668 C 90.64453854775326,290.5181226879507 90.94472119806909,288.7770633161189 91.42501343857441,288.4168441357399 C 92.74581709996406,287.33618659460296 100.25038335785973,286.1954925234028 100.97082171861771,286.91593088416073 C 101.33104089899672,287.27615006453976 101.81133313950207,289.43746514681374 101.99144272969153,291.65881675915085 L 102.35166191007053,295.7413008034461 L 104.39290393221816,295.7413008034461 L 106.37410942430265,295.7413008034461 L 106.61425554455528,271.00625041742194 C 106.73432860468162,257.37795809308335 106.67429207461842,246.15112697127137 106.37410942430265,246.03105391114514 C 106.13396330404996,245.9109808510188 104.33286740215499,246.15112697127137 102.35166191007053,246.5113461516504"
                 class="c1"
                 id="i14" />
            </g>
            <g
               id="g16">
              <path
                 style="stroke: none; stroke-width: 1; stroke-dasharray: none; stroke-linecap: butt; stroke-dashoffset: 0; stroke-linejoin: miter; stroke-miterlimit: 4;  fill-rule: nonzero; opacity: 1"
                 d="M 160.10070781393696,273.52150393539137 C 160.10070781393696,287.5700519701721 160.3408539341896,299.15710227236303 160.58100005444228,299.33721186255246 C 161.0612922949476,299.6373945128683 191.25966691671985,302.0988922454581 197.0231738027837,302.2790018356476 L 200.02500030594197,302.39907489577394 L 200.20510989613146,277.8441340999393 C 200.2651464261946,262.3547093436426 200.14507336606832,253.04904718385188 199.7248176556262,252.62879147340982 C 199.18448888505768,252.0884627028413 166.52461653069562,248.18608824873553 162.08191330602145,248.06601518860919 L 160.10070781393696,248.06601518860919 L 160.10070781393696,273.52150393539137"
                 class="c1"
                 id="i15" />
            </g>
            <g
               id="g17">
              <path
                 style="stroke: none; stroke-width: 1; stroke-dasharray: none; stroke-linecap: butt; stroke-dashoffset: 0; stroke-linejoin: miter; stroke-miterlimit: 4;  fill-rule: nonzero; opacity: 1"
                 d="M 21.123760738832402,256.1147895005543 C 12.718646529989257,257.79581234232296 5.454226392346214,259.2366890638389 4.9739341518408935,259.4167986540284 C 3.893276610703907,259.71698130434424 4.253495791082912,307.80624188493977 5.334153332219898,308.8868994260767 C 5.934518632851535,309.48726472670836 7.9757606549991635,309.30715513651893 14.639815492010541,308.22649759538194 C 19.382701367000607,307.50605923462393 26.82723109483311,306.425401693487 31.2098977894442,305.82503639285534 C 35.59256448405529,305.2847076222868 39.434902408097855,304.56426926152886 39.73508505841369,304.26408661121303 C 40.03526770872949,303.9639039608972 40.335450359045325,301.98269846881277 40.45552341917167,299.82138338653874 L 40.635633009361186,295.91900893243303 L 43.03709421188779,296.0991185226225 C 44.35789787327741,296.1591550526857 47.539833966625196,296.3993011729383 50.12140475934132,296.5794107631278 L 54.74421757420504,296.9396299435068 L 54.74421757420504,294.838351391296 C 54.74421757420504,293.6376207900327 54.56410798401558,292.5569632488957 54.32396186376289,292.4368901887694 C 54.02377921344706,292.2567805985799 51.14202577041513,291.8365248881378 47.84001661694103,291.4162691776956 C 44.538007463466926,290.9960134672534 41.47614443024548,290.4556846966849 41.11592524986648,290.0954655163059 C 40.69566953942433,289.735246335927 40.335450359045325,288.294369614411 40.335450359045325,286.91352942295816 C 40.335450359045325,285.5326892315054 40.69566953942433,284.0918125099894 41.11592524986648,283.79162985967355 C 41.536180960308656,283.4314106792945 43.577422982456284,283.3713741492314 46.339103365361865,283.6715567995472 C 48.80060109795167,283.9117029197999 51.74239107104677,284.1518490400526 52.823048612183754,284.1518490400526 L 54.74421757420504,284.2118855701157 L 54.74421757420504,269.8631548850192 C 54.74421757420504,261.6381502663655 54.504071453952406,255.33431460973316 54.20388880363657,255.09416848948052 C 53.303340852689075,254.61387624897515 41.536180960308656,252.9928899372697 38.83453710746622,253.0529264673329 C 37.51373344607657,253.11296299739604 29.528874947675575,254.4938031888488 21.123760738832402,256.1147895005543"
                 class="c1"
                 id="i16" />
            </g>
            <g
               id="g18">
              <path
                 style="stroke: none; stroke-width: 1; stroke-dasharray: none; stroke-linecap: butt; stroke-dashoffset: 0; stroke-linejoin: miter; stroke-miterlimit: 4;  fill-rule: nonzero; opacity: 1"
                 d="M 207.81418589828334,253.65319940407227 C 207.63407630809385,254.13349164457753 207.57403977803065,265.42035929645266 207.63407630809385,278.8085055005385 L 207.81418589828334,303.12330017612055 L 210.69593934131527,303.54355588656273 C 216.09922704700014,304.2639942473207 247.25818614978303,306.4853458596578 247.61840533016206,306.1251266792789 C 247.79851492035155,305.9450170890893 248.03866104060413,295.01836861759324 248.15873410073047,281.87036853376 C 248.27880716085681,263.6192633945577 248.09869757066738,257.79571997843067 247.55836880009886,257.3754642679885 C 247.13811308965668,257.07528161767266 239.39340071150835,256.0546606065988 230.3278846719704,255.15411265565137 C 221.26236863243238,254.25356470470388 212.55707177327335,253.35301675375644 210.9961219916311,253.1729071635669 C 208.89484343942027,252.9327610433142 208.05433201853603,253.0528341034406 207.81418589828334,253.65319940407227"
                 class="c1"
                 id="i17" />
            </g>
            <g
               id="g19">
              <path
                 style="stroke: none; stroke-width: 1; stroke-dasharray: none; stroke-linecap: butt; stroke-dashoffset: 0; stroke-linejoin: miter; stroke-miterlimit: 4;  fill-rule: nonzero; opacity: 1"
                 d="M 63.23047346252588,256.43192092512646 C 62.51003510176787,257.1523592858845 62.75018122202053,302.7801221338902 63.41058305271534,303.20037784433237 C 63.770802233094344,303.44052396458494 64.43120406378918,303.26041437439557 64.97153283435767,302.90019519401653 C 65.69197119511568,302.23979336332167 65.81204425524197,298.75767461965813 65.69197119511568,279.24580234912935 C 65.51186160492617,259.1936013080321 65.39178854479982,256.3718843950633 64.61131365397867,256.1917748048738 C 64.07098488341018,256.13173827481063 63.47061958277851,256.1917748048738 63.23047346252588,256.43192092512646"
                 class="c1"
                 id="i18" />
            </g>
            <g
               id="g20">
              <path
                 style="stroke: none; stroke-width: 1; stroke-dasharray: none; stroke-linecap: butt; stroke-dashoffset: 0; stroke-linejoin: miter; stroke-miterlimit: 4;  fill-rule: nonzero; opacity: 1"
                 d="M 100.86137050611796,306.2793743795949 C 82.25004618653668,308.74087211218466 24.675013855960998,316.1854018400172 12.907853963580607,317.6863150915964 C 6.664054837011378,318.4667899824175 1.2007306012633308,319.24726487323863 0.7804748908211536,319.367337933365 C 0.18010959018951667,319.60748405361755 0.0,322.1890548463337 0.0,330.23394987479793 L 0.0,340.7403426358519 L 1.6810228417686517,340.7403426358519 C 3.4220822136004188,340.7403426358519 53.8527674666594,334.55658003934576 72.04383607579857,332.09508230675607 C 78.16756214224142,331.2545708858717 87.05296859158994,330.1739133447348 91.85589099664315,329.63358457416626 C 96.65881340169639,329.0932558035978 103.56301435896043,328.2527443827135 107.28527922287671,327.7724521422081 C 112.62853039849844,327.05201378145017 115.27013772127768,326.99197725138697 120.19313318645723,327.5323060219555 C 123.61521540005768,327.8324886722713 130.21923370700588,328.37281744283973 134.9020830519328,328.73303662321877 C 144.7480739822919,329.4534749839768 149.55099638734512,330.7142421153032 154.65410144271422,334.01625126877735 C 160.7778275091571,337.97866225294626 165.04042114364185,343.5620595488206 167.5619554062948,350.7664431564005 C 168.2823937670528,352.6876121184218 168.88275906768447,354.36863496019043 169.0028321278107,354.5487445503799 C 169.12290518793705,354.7288541405694 171.0440741499584,354.7288541405694 173.3254622923587,354.4887080203168 C 189.77547152966602,352.8076851785481 196.61963595686686,352.027210287727 197.03989166730904,351.7870641674743 C 197.28003778756167,351.6069545772848 197.52018390781436,350.88651621652684 197.52018390781436,350.22611438583203 C 197.52018390781436,349.505676025074 198.54080491888814,346.92410523235793 199.80157205021467,344.402570969705 C 205.62511546634167,332.57537454726133 217.39227535872217,325.7912466501237 232.04118869413455,325.7312101200605 C 240.92659514348296,325.7312101200605 248.25105181118917,328.6129635630924 254.85507011813732,334.79672615959845 L 258.81748110230626,338.5189910235148 L 264.0406592178017,337.97866225294626 L 269.26383733329715,337.43833348237774 L 269.4439469234866,327.41223296182915 C 269.564019983613,318.34671692229114 269.5039834535497,317.32609591121735 268.5433989725391,316.84580367071203 C 267.9430336719074,316.5456210203962 264.76109757855966,316.125365309954 261.4590884250855,315.88521918970144 C 242.5475814551884,314.74452511850126 218.05267718941693,313.00346574666946 208.92712461981583,312.22299085584825 C 203.16361773375192,311.74269861534293 190.61598295055032,310.7821141343323 181.01013814044384,310.1217123036375 C 171.4643298604005,309.4613104729427 162.39881382086256,308.80090864224786 160.8979005692834,308.6207990520584 C 157.6559279458725,308.2005433416162 112.08820162792992,304.7184245979526 111.66794591748774,304.7784611280158 C 111.48783632729825,304.83849765807895 106.62487739218184,305.4988994887737 100.86137050611796,306.2793743795949"
                 class="c1"
                 id="i19" />
            </g>
            <g
               id="g21">
              <path
                 style="stroke: none; stroke-width: 1; stroke-dasharray: none; stroke-linecap: butt; stroke-dashoffset: 0; stroke-linejoin: miter; stroke-miterlimit: 4;  fill-rule: nonzero; opacity: 1"
                 d="M 233.56029763251738,334.32003611089704 C 223.95445282241084,336.1811685428552 216.62999615470468,344.70635581182466 214.8889367828729,355.99322346369974 C 214.16849842211494,360.49596321843717 214.46868107243077,366.97990846525903 215.60937514363084,371.12242903961743 C 216.56995962464154,374.6645843133442 215.7294482037572,374.42443819309153 214.0484253619886,370.6421367991121 C 212.72762170059897,367.70034682601704 212.36740252021994,367.28009111557486 211.22670844901975,367.5802737658907 C 210.44623355819866,367.7603833560802 207.26429746485084,368.420785186775 204.08236137150314,369.02115048740666 C 200.90042527815532,369.6215157880383 198.0186718351234,370.2819176187332 197.65845265474442,370.52206373898576 C 196.75790470379692,371.0623925095543 197.8385622449339,374.604547783281 200.60024262783955,379.8877624288396 C 203.9022517813136,386.191598085472 207.62451664522987,390.75437437027256 211.88711027971462,393.456018223115 C 213.8683157717991,394.77682188450467 215.4893020835046,395.97755248576794 215.4893020835046,396.2176986060206 C 215.5493386135677,396.7580273765891 140.92393174505307,397.11824655696813 136.901484230821,396.5178812563364 C 128.43633349191467,395.3771871851363 119.31078092231351,388.35291316774595 115.16826034795506,379.8877624288396 C 112.16643384479679,373.6439633022704 111.68614160429146,371.66275781018595 111.26588589384934,363.1976070712796 C 111.0857763036598,359.17515955704755 110.84563018340717,355.8731504035734 110.78559365334397,355.8731504035734 C 110.72555712328082,355.8731504035734 101.23978537330069,356.9538079447104 89.71277160117293,358.21457507603685 C 78.18575782904514,359.53537873742647 60.5350179904745,361.39651116938467 50.44888093986273,362.41713218045845 C 40.36274388925091,363.49778972159544 30.636826019018116,364.5184107326692 28.83573011712315,364.7585568529219 L 25.533720963649074,365.1788125633641 L 25.65379402377536,368.48082171683814 C 25.89394014402805,372.98356147157557 27.755072575986162,378.8071048877026 30.456716428828628,383.3698811725032 C 33.09832375160789,387.81258439717743 38.80179410760863,393.816237403494 41.443401430387894,394.896894944631 C 42.403985911398536,395.3171506550731 43.24449733228283,395.8574794256416 43.24449733228283,396.0976255458943 C 43.24449733228283,396.8180639066523 36.160186784829335,397.2383196170945 17.608898995311222,397.65857532753654 C 8.243200305457407,397.8987214477892 0.6185609874353872,398.2589406281682 0.6185609874353872,398.4990867484209 C 0.6185609874353872,399.639780819621 38.62168451741911,400.0 152.8111646975598,400.0 C 266.34024304700574,400.0 303.8030378064209,399.639780819621 303.8030378064209,398.4990867484209 C 303.8030378064209,398.0788310379787 293.77693728587235,397.71861185759974 259.8562978001838,396.93813696677864 C 250.67070870051955,396.69799084652595 243.1661424426238,396.3377716661469 243.1661424426238,396.15766207595743 C 243.1661424426238,395.97755248576794 244.00665386350815,395.4372237151994 244.9672383445188,394.95693147469416 C 248.14917443786655,393.5760912832413 253.85264479386726,388.95327846837756 255.95392334607808,386.0114884952825 C 260.8769188112576,379.22736059814474 262.97819736346844,372.7434153513229 262.97819736346844,363.9780819621007 C 262.97819736346844,354.4322736820575 260.27655351062594,347.1078170143513 254.6931562147516,341.5244197184769 C 250.61067217045635,337.44193567418165 246.64826118628739,335.2205840618445 241.6652291910447,334.32003611089704 C 237.70281820687578,333.5995977501391 237.3425990264968,333.5995977501391 233.56029763251738,334.32003611089704 M 91.27372138281524,374.0642190127126 C 91.27372138281524,376.2855706250496 96.49689949831063,386.13156155540884 99.37865294134258,389.3134976487566 C 100.87956619292169,390.99452049052525 103.34106392551149,393.1558355727992 104.78194064702743,394.1164200538098 C 106.28285389860659,395.01696800475725 107.48358449986992,395.97755248576794 107.48358449986992,396.2176986060206 C 107.48358449986992,396.5178812563364 99.4987260014689,396.69799084652595 89.77280813123608,396.69799084652595 C 80.04689026100328,396.69799084652595 72.06203176260229,396.45784472627327 72.06203176260229,396.2176986060206 C 72.06203176260229,395.91751595570474 72.96257971354976,395.25711412500993 74.10327378474992,394.77682188450467 C 75.24396785595005,394.23649311393615 77.88557517872931,392.1352145617254 80.04689026100328,390.1540090696409 C 83.94926471510905,386.43174420572467 87.3113103986463,381.02845650003974 88.8722601802886,375.98538797473384 C 89.23247936066761,374.6645843133442 89.65273507110976,373.22370759182826 89.83284466129925,372.8034518813861 C 90.19306384167825,371.60272128012275 91.27372138281524,372.5633057611334 91.27372138281524,374.0642190127126"
                 class="c1"
                 id="i20" />
            </g>
            <g
               id="g22">
              <path
                 style="stroke: none; stroke-width: 1; stroke-dasharray: none; stroke-linecap: butt; stroke-dashoffset: 0; stroke-linejoin: miter; stroke-miterlimit: 4;  fill-rule: nonzero; opacity: 1"
                 d="M 137.81838059072416,336.9062250982334 C 130.55396045308115,339.30768630075994 124.13005173632243,347.35258132922405 122.14884624423794,356.47813389882526 C 120.5278599325325,364.3429193370999 121.42840788347993,373.10825272632206 124.61034397682775,379.3520518528913 C 126.83169558916487,383.7947550775655 133.31564083598673,390.3387368544506 137.09794222996615,392.01975969621924 C 141.60068198470358,394.06100171836687 150.3660153739257,394.06100171836687 154.44849941822096,392.01975969621924 C 160.33207936441116,389.1380062531873 164.95489217927494,383.91482813769187 167.59649950205417,377.2507733006805 C 168.7972301033175,374.12887373739596 168.977339693507,372.62796048581674 168.977339693507,365.5436499383633 C 168.977339693507,358.4593393909097 168.7972301033175,356.9584261393306 167.59649950205417,353.83652657604597 C 164.6547095289591,346.3319603181503 160.15196977422167,341.168818732718 153.78809758752615,338.10695569949667 C 151.14649026474686,336.78615203810693 149.5255039530414,336.425932857728 145.38298337868295,336.3058597976017 C 142.2610838153984,336.1857867374753 139.25925731224012,336.425932857728 137.81838059072416,336.9062250982334 M 149.58554048310455,357.55879143996225 C 152.9475861666418,360.38050835293103 154.02824370777878,365.18343075798424 152.287184335947,369.32595133234264 C 151.08645373468372,372.2677413054378 149.28535783278872,373.4684719067011 145.92331214925147,373.8286910870801 C 143.04155870621955,374.06883720733276 142.80141258596686,374.00880067726956 140.2798783233139,371.4872664146166 C 137.09794222996615,368.24529379120565 136.37750386920814,365.1233942279211 137.8784171207873,361.3410928339417 C 140.03973220306122,355.99784165831994 145.5630929688725,354.19674575642495 149.58554048310455,357.55879143996225"
                 class="c1"
                 id="i21" />
            </g>
            <g
               id="g23">
              <path
                 style="stroke: none; stroke-width: 1; stroke-dasharray: none; stroke-linecap: butt; stroke-dashoffset: 0; stroke-linejoin: miter; stroke-miterlimit: 4;  fill-rule: nonzero; opacity: 1"
                 d="M 109.65672216037174,340.4718869825771 C 97.82952573792812,341.97280023415624 66.55049357501892,345.63502856800926 50.52074004815378,347.37608793984106 C 43.07621032032125,348.15656283066227 35.69171712255189,349.05711078160977 34.01069428078324,349.29725690186245 L 31.00886777762497,349.7175126123045 L 29.027662285540515,354.40036195723144 C 27.947004744403557,356.92189621988445 27.226566383645576,359.32335742241105 27.466712503898236,359.68357660278997 C 27.76689515421404,360.16386884329535 29.14773534566686,360.28394190342163 31.849379198509325,360.043795783169 C 39.654128106720805,359.32335742241105 64.92950726331347,356.62171356956856 80.23882242942065,354.8806541977368 C 88.82404622845331,353.8600331866629 99.57058510975995,352.65930258539964 104.1333613945605,352.1790103448943 C 108.63610114929796,351.698718104389 112.59851213346687,351.0983528037574 112.95873131384585,350.91824321356785 C 113.91931579485649,350.3178779129362 118.96238432016239,340.17170433226124 118.48209207965706,339.75144862181907 C 118.24194595940438,339.5713390316296 114.27953497523546,339.8715216819454 109.65672216037174,340.4718869825771"
                 class="c1"
                 id="i22" />
            </g>
            <g
               id="g24">
              <path
                 style="stroke: none; stroke-width: 1; stroke-dasharray: none; stroke-linecap: butt; stroke-dashoffset: 0; stroke-linejoin: miter; stroke-miterlimit: 4;  fill-rule: nonzero; opacity: 1"
                 d="M 195.57102868639433,358.65334974690614 C 194.91062685569952,358.83345933709563 189.80752180033048,359.3737881076641 184.16408797439286,359.97415340829576 L 173.95787786365477,360.9947744193696 L 174.1980239839074,364.8971488734753 C 174.2580605139706,367.0584639557493 174.4381701041601,368.91959638770743 174.55824316428644,369.0997059778969 C 174.79838928453907,369.5199616883391 187.04584141742484,368.67945026745474 194.1301519648783,367.7188657864441 L 199.77358579081593,366.99842742568615 L 199.77358579081593,362.79587032126454 C 199.77358579081593,358.7133862769693 199.71354926075273,358.593313216843 198.2726725392367,358.5332766867798 C 197.43216111835247,358.47324015671666 196.2314305170892,358.5332766867798 195.57102868639433,358.65334974690614"
                 class="c1"
                 id="i23" />
            </g>
          </g>
        </g>
      </svg>
    </g>
  </g>
</svg>
