<?xml version="1.0" encoding="UTF-8" standalone="no"?>
<svg
   width="1500"
   height="1500"
   version="1.1"
   id="svg2"
   xmlns:inkscape="http://www.inkscape.org/namespaces/inkscape"
   xmlns:sodipodi="http://sodipodi.sourceforge.net/DTD/sodipodi-0.dtd"
   xmlns="http://www.w3.org/2000/svg"
   xmlns:svg="http://www.w3.org/2000/svg">
  <sodipodi:namedview
     id="namedview2"
     pagecolor="#ffffff"
     bordercolor="#000000"
     borderopacity="0.25"
     inkscape:showpageshadow="2"
     inkscape:pageopacity="0.0"
     inkscape:pagecheckerboard="0"
     inkscape:deskcolor="#d1d1d1" />
  <defs
     id="defs1" />
  <rect
     width="100%"
     height="100%"
     fill="#fff"
     id="rect1" />
  <g
     transform="translate(199.18032786885237, 617.2131147540983) scale(1.3278688524590165)"
     id="g2">
    <g
       transform="translate(-1.8518518518518519, 196.2962962962963) rotate(0)"
       id="g1">
      <path
         d="M 19.8,0 Q 19.2,0 19.05,-0.75 L 1.35,-103.8 q -0.15,-0.6 0.45,-0.6 h 16.8 q 0.6,0 0.75,0.6 l 9.6,67.8 9.9,-67.8 q 0.15,-0.6 0.9,-0.6 h 13.5 q 0.6,0 0.75,0.6 l 9.75,67.8 9.75,-67.8 q 0.15,-0.6 0.75,-0.6 H 90.9 q 0.75,0 0.6,0.6 L 73.65,-0.75 Q 73.5,-0.45 73.2,-0.15 72.9,0 72.9,0 H 54.75 Q 54.3,0 54,-0.75 L 46.35,-54.6 38.7,-0.75 Q 38.55,0 37.95,0 Z m 94.49996,0 q -0.45,0 -0.45,-0.6 l 0.15,-42.6 -20.1,-60.6 q -0.15,-0.6 0.45,-0.6 h 16.65 q 0.75,0 0.9,0.6 l 11.1,40.35 11.25,-40.35 q 0.15,-0.6 0.75,-0.6 h 16.8 q 0.6,0 0.45,0.6 l -20.25,60 0.15,43.2 q 0,0.6 -0.6,0.6 z m 68.6998,1.5 q -8.1,0 -14.85,-4.05 -6.6,-4.2 -10.65,-10.95 -3.9,-6.9 -3.9,-15.15 v -6.9 q 0,-0.75 0.75,-0.75 h 16.8 q 0.6,0 0.6,0.75 v 6.9 q 0,4.95 3.3,8.55 3.3,3.45 7.95,3.45 4.65,0 7.95,-3.6 3.3,-3.6 3.3,-8.4 0,-5.55 -7.2,-9.6 -2.4,-1.35 -7.5,-4.2 -5.1,-2.85 -9.6,-5.4 -8.25,-4.8 -12.3,-12 -3.9,-7.35 -3.9,-16.5 0,-8.4 4.05,-15 4.05,-6.75 10.65,-10.65 6.75,-3.9 14.55,-3.9 7.95,0 14.55,4.05 6.75,3.9 10.65,10.65 4.05,6.6 4.05,14.85 v 12.3 q 0,0.6 -0.6,0.6 h -16.8 q -0.6,0 -0.6,-0.6 l -0.15,-12.3 q 0,-5.25 -3.3,-8.55 -3.3,-3.3 -7.8,-3.3 -4.65,0 -7.95,3.6 -3.3,3.45 -3.3,8.25 0,4.95 2.1,8.25 2.1,3.3 7.65,6.3 0.75,0.45 2.85,1.65 2.25,1.05 4.8,2.55 2.55,1.35 4.5,2.4 2.1,1.05 2.55,1.35 7.5,4.2 11.85,10.35 4.35,6 4.35,14.85 0,8.55 -4.05,15.45 -3.9,6.75 -10.65,10.8 -6.6,3.9 -14.7,3.9 z M 223.49987,0 q -0.6,0 -0.6,-0.75 l 0.15,-103.05 q 0,-0.6 0.75,-0.6 h 16.65 q 0.75,0 0.75,0.6 l -0.15,40.8 h 22.5 v -40.8 q 0,-0.6 0.6,-0.6 h 16.65 q 0.75,0 0.75,0.6 l 0.3,103.05 q 0,0.75 -0.75,0.75 h -16.8 q -0.75,0 -0.75,-0.75 v -44.1 h -22.5 v 44.1 q 0,0.75 -0.6,0.75 z m 71.25006,0 q -0.6,0 -0.6,-0.75 l 0.3,-102.9 q 0,-0.75 0.6,-0.75 h 16.8 q 0.6,0 0.6,0.75 v 35.55 l 23.55,-35.7 q 0.45,-0.6 1.05,-0.6 h 17.25 q 0.6,0 0.3,0.6 l -25.95,41.4 29.1,61.8 q 0.3,0.6 -0.75,0.6 h -18.3 q -0.75,0 -0.9,-0.6 l -20.25,-44.1 -5.25,8.25 v 35.7 q 0,0.75 -0.6,0.75 z m 70.49998,0 q -0.75,0 -0.75,-0.75 l 0.15,-103.05 q 0,-0.6 0.6,-0.6 h 16.8 q 0.6,0 0.6,0.6 l 0.15,103.05 q 0,0.75 -0.6,0.75 z m 45.74988,0 q -0.6,0 -0.6,-0.75 v -85.5 h -19.5 q -0.75,0 -0.75,-0.75 l 0.15,-16.8 q 0,-0.6 0.6,-0.6 h 57 q 0.75,0 0.75,0.6 V -87 q 0,0.75 -0.6,0.75 h -19.65 l 0.15,85.5 q 0,0.75 -0.6,0.75 z"
         id="text1"
         style="font-size:150px;font-family:f37;fill:#171717"
         transform="scale(1.8518519)"
         aria-label="wyshkit" />
    </g>
  </g>
</svg>
